<svg xmlns="http://www.w3.org/2000/svg" viewBox="0 0 520 520" fill="none">
  <defs>
    <linearGradient id="yellow" x1="102" y1="70" x2="409" y2="430" gradientUnits="userSpaceOnUse">
      <stop stop-color="#fff48a"/><stop offset=".52" stop-color="#ffd943"/><stop offset="1" stop-color="#ffab23"/>
    </linearGradient>
    <linearGradient id="tail" x1="338" y1="188" x2="507" y2="405" gradientUnits="userSpaceOnUse">
      <stop stop-color="#fff59c"/><stop offset="1" stop-color="#ffc72c"/>
    </linearGradient>
    <filter id="glow" x="-60%" y="-60%" width="220%" height="220%"><feGaussianBlur stdDeviation="11"/></filter>
    <filter id="shadow" x="-40%" y="-40%" width="180%" height="180%"><feDropShadow dx="0" dy="20" stdDeviation="17" flood-color="#060b19" flood-opacity=".5"/></filter>
  </defs>
  <circle cx="261" cy="259" r="188" stroke="#f8d445" stroke-opacity=".18" stroke-width="2" stroke-dasharray="7 15"/>
  <circle cx="261" cy="259" r="221" stroke="#66c9e8" stroke-opacity=".17" stroke-width="1"/>
  <path d="M371 267l74-42-25 63 56-12-89 111 18-69-55 13 21-64Z" fill="#ffd943" fill-opacity=".85" filter="url(#glow)"/>
  <path d="M371 267l74-42-25 63 56-12-89 111 18-69-55 13 21-64Z" fill="url(#tail)" stroke="#463316" stroke-width="8" stroke-linejoin="round"/>
  <g filter="url(#shadow)">
    <path d="M169 169 113 28c-5-14 12-23 22-12l111 129-77 24Z" fill="url(#yellow)" stroke="#3c3032" stroke-width="9" stroke-linejoin="round"/>
    <path d="m124 42-11-14c-5-8 6-17 14-11l65 75-29 26-39-76Z" fill="#31313b"/>
    <path d="m327 153 112-132c11-13 29-5 24 12l-46 165-90-45Z" fill="url(#yellow)" stroke="#3c3032" stroke-width="9" stroke-linejoin="round"/>
    <path d="m402 66 36-44c10-13 28-5 24 12l-23 81-37-49Z" fill="#31313b"/>
    <path d="M105 258c0-100 70-164 160-164 103 0 175 67 175 169 0 91-72 165-173 165-90 0-162-66-162-170Z" fill="url(#yellow)" stroke="#3c3032" stroke-width="10"/>
    <path d="M151 356c24 50 66 72 116 72 55 0 104-29 132-78" stroke="#fff5ac" stroke-opacity=".58" stroke-width="9" stroke-linecap="round"/>
    <ellipse cx="195" cy="251" rx="18" ry="27" fill="#242631"/>
    <ellipse cx="334" cy="251" rx="18" ry="27" fill="#242631"/>
    <ellipse cx="202" cy="243" rx="6" ry="9" fill="white"/>
    <ellipse cx="341" cy="243" rx="6" ry="9" fill="white"/>
    <ellipse cx="134" cy="321" rx="36" ry="27" fill="#ef5b59"/>
    <ellipse cx="398" cy="321" rx="36" ry="27" fill="#ef5b59"/>
    <path d="m252 295 13 12 13-12c5-5 1-11-5-11h-16c-6 0-10 6-5 11Z" fill="#292b34"/>
    <path d="M265 309v14m0 0c-8 12-19 15-31 6m31-6c8 12 19 15 31 6" stroke="#292b34" stroke-width="6" stroke-linecap="round"/>
  </g>
  <path d="m68 204 13-31 13 31 31 13-31 13-13 31-13-31-31-13 31-13Zm387 168 8-20 8 20 20 8-20 8-8 20-8-20-20-8 20-8Z" fill="#ffdc55"/>
  <path d="M67 405h84m246-221h59M129 454h50" stroke="#82cfe9" stroke-opacity=".8" stroke-width="3" stroke-linecap="round"/>
</svg>
